<svg xmlns="http://www.w3.org/2000/svg" xmlns:oryx="http://oryx-editor.org" id="_6C806454-77E0-47E2-B53B-518FCEC9D57D" width="788" height="481" xmlns:xlink="http://www.w3.org/1999/xlink" xmlns:svg="http://www.w3.org/2000/svg"><defs><marker id="_3ED751EE-705E-418E-8F76-1CCB04346B32start" refX="1" refY="5" markerUnits="userSpaceOnUse" markerWidth="17" markerHeight="11" orient="auto" fill="#000000" stroke="#000000"> 	  		<path id="_3ED751EE-705E-418E-8F76-1CCB04346B32conditional" d="M 0 5 L 8 0 L 16 5 L 8 10 L 0 5" fill="white" stroke="#000000" stroke-width="1" display="none"/> 			<path id="_3ED751EE-705E-418E-8F76-1CCB04346B32default" d="M 5 0 L 11 10" fill="white" stroke="#000000" stroke-width="1" display="none"/> 	  	</marker><marker id="_3ED751EE-705E-418E-8F76-1CCB04346B32end" refX="15" refY="6" markerUnits="userSpaceOnUse" markerWidth="15" markerHeight="12" orient="auto" fill="#000000" stroke="#000000"> 	  		<path id="_3ED751EE-705E-418E-8F76-1CCB04346B32frame2" d="M 0 1 L 15 6 L 0 11z" fill="#000000" stroke="#000000" stroke-linejoin="round" stroke-width="2"/> 	  	</marker><marker id="_D142C2A2-8F57-4E38-BE10-95BA4672E4CCstart" refX="1" refY="5" markerUnits="userSpaceOnUse" markerWidth="17" markerHeight="11" orient="auto" fill="#000000" stroke="#000000"> 	  		<path id="_D142C2A2-8F57-4E38-BE10-95BA4672E4CCconditional" d="M 0 5 L 8 0 L 16 5 L 8 10 L 0 5" fill="white" stroke="#000000" stroke-width="1" display="none"/> 			<path id="_D142C2A2-8F57-4E38-BE10-95BA4672E4CCdefault" d="M 5 0 L 11 10" fill="white" stroke="#000000" stroke-width="1" display="none"/> 	  	</marker><marker id="_D142C2A2-8F57-4E38-BE10-95BA4672E4CCend" refX="15" refY="6" markerUnits="userSpaceOnUse" markerWidth="15" markerHeight="12" orient="auto" fill="#000000" stroke="#000000"> 	  		<path id="_D142C2A2-8F57-4E38-BE10-95BA4672E4CCframe2" d="M 0 1 L 15 6 L 0 11z" fill="#000000" stroke="#000000" stroke-linejoin="round" stroke-width="2"/> 	  	</marker><marker id="_AC7FB1B1-08F4-4671-A08D-8037AD3B6951start" refX="1" refY="5" markerUnits="userSpaceOnUse" markerWidth="17" markerHeight="11" orient="auto" fill="#000000" stroke="#000000"> 	  		<path id="_AC7FB1B1-08F4-4671-A08D-8037AD3B6951conditional" d="M 0 5 L 8 0 L 16 5 L 8 10 L 0 5" fill="white" stroke="#000000" stroke-width="1" display="none"/> 			<path id="_AC7FB1B1-08F4-4671-A08D-8037AD3B6951default" d="M 5 0 L 11 10" fill="white" stroke="#000000" stroke-width="1" display="none"/> 	  	</marker><marker id="_AC7FB1B1-08F4-4671-A08D-8037AD3B6951end" refX="15" refY="6" markerUnits="userSpaceOnUse" markerWidth="15" markerHeight="12" orient="auto" fill="#000000" stroke="#000000"> 	  		<path id="_AC7FB1B1-08F4-4671-A08D-8037AD3B6951frame2" d="M 0 1 L 15 6 L 0 11z" fill="#000000" stroke="#000000" stroke-linejoin="round" stroke-width="2"/> 	  	</marker><marker id="_392AFAAA-8178-41FE-B01B-77951CCD4E34start" refX="1" refY="5" markerUnits="userSpaceOnUse" markerWidth="17" markerHeight="11" orient="auto" fill="#000000" stroke="#000000"> 	  		<path id="_392AFAAA-8178-41FE-B01B-77951CCD4E34conditional" d="M 0 5 L 8 0 L 16 5 L 8 10 L 0 5" fill="white" stroke="#000000" stroke-width="1" display="none"/> 			<path id="_392AFAAA-8178-41FE-B01B-77951CCD4E34default" d="M 5 0 L 11 10" fill="white" stroke="#000000" stroke-width="1" display="none"/> 	  	</marker><marker id="_392AFAAA-8178-41FE-B01B-77951CCD4E34end" refX="15" refY="6" markerUnits="userSpaceOnUse" markerWidth="15" markerHeight="12" orient="auto" fill="#000000" stroke="#000000"> 	  		<path id="_392AFAAA-8178-41FE-B01B-77951CCD4E34frame2" d="M 0 1 L 15 6 L 0 11z" fill="#000000" stroke="#000000" stroke-linejoin="round" stroke-width="2"/> 	  	</marker><marker id="_FFC7A033-612B-4E99-A019-DC2F1FB981D3start" refX="1" refY="5" markerUnits="userSpaceOnUse" markerWidth="17" markerHeight="11" orient="auto" fill="#000000" stroke="#000000"> 	  		<path id="_FFC7A033-612B-4E99-A019-DC2F1FB981D3conditional" d="M 0 5 L 8 0 L 16 5 L 8 10 L 0 5" fill="white" stroke="#000000" stroke-width="1" display="none"/> 			<path id="_FFC7A033-612B-4E99-A019-DC2F1FB981D3default" d="M 5 0 L 11 10" fill="white" stroke="#000000" stroke-width="1" display="none"/> 	  	</marker><marker id="_FFC7A033-612B-4E99-A019-DC2F1FB981D3end" refX="15" refY="6" markerUnits="userSpaceOnUse" markerWidth="15" markerHeight="12" orient="auto" fill="#000000" stroke="#000000"> 	  		<path id="_FFC7A033-612B-4E99-A019-DC2F1FB981D3frame2" d="M 0 1 L 15 6 L 0 11z" fill="#000000" stroke="#000000" stroke-linejoin="round" stroke-width="2"/> 	  	</marker><marker id="_252267B1-818F-4E6C-950D-113F5E23FE3Astart" refX="1" refY="5" markerUnits="userSpaceOnUse" markerWidth="17" markerHeight="11" orient="auto" fill="#000000" stroke="#000000"> 	  		<path id="_252267B1-818F-4E6C-950D-113F5E23FE3Aconditional" d="M 0 5 L 8 0 L 16 5 L 8 10 L 0 5" fill="white" stroke="#000000" stroke-width="1" display="none"/> 			<path id="_252267B1-818F-4E6C-950D-113F5E23FE3Adefault" d="M 5 0 L 11 10" fill="white" stroke="#000000" stroke-width="1" display="none"/> 	  	</marker><marker id="_252267B1-818F-4E6C-950D-113F5E23FE3Aend" refX="15" refY="6" markerUnits="userSpaceOnUse" markerWidth="15" markerHeight="12" orient="auto" fill="#000000" stroke="#000000"> 	  		<path id="_252267B1-818F-4E6C-950D-113F5E23FE3Aframe2" d="M 0 1 L 15 6 L 0 11z" fill="#000000" stroke="#000000" stroke-linejoin="round" stroke-width="2"/> 	  	</marker></defs><g stroke="none" font-family="Verdana, sans-serif" font-size-adjust="none" font-style="normal" font-variant="normal" font-weight="normal" line-heigth="normal" font-size="12"><g class="stencils" transform="translate(15, 16)"><g class="me"/><g class="children"><g id="_65DCB8A0-C93E-430C-BB6E-1893230CAB55" bpmn2nodeid="_4665B028-1A93-453A-8E20-1D6EA3FFFA3F"><g class="stencils" transform="translate(180, 172)"><g class="me"><g pointer-events="fill" id="_65DCB8A0-C93E-430C-BB6E-1893230CAB55">        <defs id="_65DCB8A0-C93E-430C-BB6E-1893230CAB55__65DCB8A0-C93E-430C-BB6E-1893230CAB55_5"> 		<radialGradient id="_65DCB8A0-C93E-430C-BB6E-1893230CAB55background" cx="10%" cy="10%" r="100%" fx="10%" fy="10%"> 			<stop offset="0%" stop-color="#ffffff" stop-opacity="1" id="_65DCB8A0-C93E-430C-BB6E-1893230CAB55__65DCB8A0-C93E-430C-BB6E-1893230CAB55_6"/> 			<stop id="_65DCB8A0-C93E-430C-BB6E-1893230CAB55fill_el" offset="100%" stop-color="#9acd32" stop-opacity="1"/> 		</radialGradient> 	</defs> 	     <circle id="_65DCB8A0-C93E-430C-BB6E-1893230CAB55bg_frame" cx="15" cy="15" r="15" stroke="#000000" fill="url(#_65DCB8A0-C93E-430C-BB6E-1893230CAB55background) white" stroke-width="1" style="stroke-dasharray: 5.5, 3"/>      <circle id="_65DCB8A0-C93E-430C-BB6E-1893230CAB55frame" cx="15" cy="15" r="15" stroke="#000000" fill="none" stroke-width="1" display="inherit"/>  	<text font-size="11" id="_65DCB8A0-C93E-430C-BB6E-1893230CAB55text_name" x="15" y="32" oryx:align="top center" stroke="black" stroke-width="0pt" letter-spacing="-0.01px" fill="#000000" text-anchor="middle" transform="rotate(0 15 32)" visibility="inherit" oryx:fontSize="11"/>   </g></g><g class="children" style="overflow:hidden"/><g class="edge"/></g><g class="controls"><g class="dockers"/><g class="magnets" transform="translate(180, 172)"><g pointer-events="all" display="none" transform="translate(7, 7)"><circle cx="8" cy="8" r="4" stroke="none" fill="red" fill-opacity="0.3"/></g></g></g></g><g id="_CCAE2EBC-E8C7-42B7-B503-B61C9FA8AAAB" bpmn2nodeid="_25A3A59D-9C59-4FFB-95D3-6F1C1C5CB68F"><g class="stencils" transform="translate(300, 70)"><g class="me"><g pointer-events="fill" oryx:minimumSize="120 100" oryx:maximumSize="" id="_CCAE2EBC-E8C7-42B7-B503-B61C9FA8AAAB">   	<defs id="_CCAE2EBC-E8C7-42B7-B503-B61C9FA8AAAB__CCAE2EBC-E8C7-42B7-B503-B61C9FA8AAAB_17"> 		<radialGradient id="_CCAE2EBC-E8C7-42B7-B503-B61C9FA8AAABbackground" cx="10%" cy="10%" r="100%" fx="10%" fy="10%"> 			<stop offset="0%" stop-color="#ffffff" stop-opacity="1" id="_CCAE2EBC-E8C7-42B7-B503-B61C9FA8AAAB__CCAE2EBC-E8C7-42B7-B503-B61C9FA8AAAB_18"/> 			<stop id="_CCAE2EBC-E8C7-42B7-B503-B61C9FA8AAABfill_el" offset="100%" stop-color="#fafad2" stop-opacity="1"/> 		</radialGradient> 	</defs> 	     <rect id="_CCAE2EBC-E8C7-42B7-B503-B61C9FA8AAABtext_frame" oryx:anchors="bottom top right left" x="0" y="0" width="319" height="234" rx="10" ry="10" stroke="none" stroke-width="0" fill="none"/> 	<rect id="_CCAE2EBC-E8C7-42B7-B503-B61C9FA8AAABbg_frame" oryx:anchors="bottom top right left" x="0" y="0" width="329" height="234" rx="10" ry="10" stroke="#000000" stroke-width="1" fill="url(#_CCAE2EBC-E8C7-42B7-B503-B61C9FA8AAABbackground) white"/>   	<text font-size="12" id="_CCAE2EBC-E8C7-42B7-B503-B61C9FA8AAABtext_name" x="8" y="10" oryx:align="top left" oryx:fittoelem="text_frame" oryx:anchors="left top" stroke="black" stroke-width="0pt" letter-spacing="-0.01px" fill="#000000" text-anchor="start" transform="rotate(0 8 10)" visibility="inherit" oryx:fontSize="12"><tspan x="8" y="10" dy="12">SLA Policy sample</tspan></text>     	 	<g id="_CCAE2EBC-E8C7-42B7-B503-B61C9FA8AAABnone"/> 	undefined 	 	 	undefined 	undefined 	 	 	undefined 	undefined   </g></g><g class="children" style="overflow:hidden"><g id="_7E6ED45C-D048-4A3B-8C11-BD216403AAED" bpmn2nodeid="_D481C285-D7FC-4DC6-8478-BE8EB180B540"><g class="stencils" transform="translate(35, 102)"><g class="me"><g pointer-events="fill" id="_7E6ED45C-D048-4A3B-8C11-BD216403AAED">        <defs id="_7E6ED45C-D048-4A3B-8C11-BD216403AAED__7E6ED45C-D048-4A3B-8C11-BD216403AAED_5"> 		<radialGradient id="_7E6ED45C-D048-4A3B-8C11-BD216403AAEDbackground" cx="10%" cy="10%" r="100%" fx="10%" fy="10%"> 			<stop offset="0%" stop-color="#ffffff" stop-opacity="1" id="_7E6ED45C-D048-4A3B-8C11-BD216403AAED__7E6ED45C-D048-4A3B-8C11-BD216403AAED_6"/> 			<stop id="_7E6ED45C-D048-4A3B-8C11-BD216403AAEDfill_el" offset="100%" stop-color="#9acd32" stop-opacity="1"/> 		</radialGradient> 	</defs> 	     <circle id="_7E6ED45C-D048-4A3B-8C11-BD216403AAEDbg_frame" cx="15" cy="15" r="15" stroke="#000000" fill="url(#_7E6ED45C-D048-4A3B-8C11-BD216403AAEDbackground) white" stroke-width="1" style="stroke-dasharray: 5.5, 3"/>      <circle id="_7E6ED45C-D048-4A3B-8C11-BD216403AAEDframe" cx="15" cy="15" r="15" stroke="#000000" fill="none" stroke-width="1" display="inherit"/>  	<text font-size="11" id="_7E6ED45C-D048-4A3B-8C11-BD216403AAEDtext_name" x="15" y="32" oryx:align="top center" stroke="black" stroke-width="0pt" letter-spacing="-0.01px" fill="#000000" text-anchor="middle" transform="rotate(0 15 32)" visibility="inherit" oryx:fontSize="11"/>   </g></g><g class="children" style="overflow:hidden"/><g class="edge"/></g><g class="controls"><g class="dockers"/><g class="magnets" transform="translate(35, 102)"><g pointer-events="all" display="none" transform="translate(7, 7)"><circle cx="8" cy="8" r="4" stroke="none" fill="red" fill-opacity="0.3"/></g></g></g></g><g id="_B62CBA6E-E2A8-4528-8F6F-EDA491FD457D" bpmn2nodeid="_A06F0D17-ACC1-40B3-B541-EBA1D697E780"><g class="stencils" transform="translate(125, 77)"><g class="me"><g pointer-events="fill" oryx:minimumSize="50 40" id="_B62CBA6E-E2A8-4528-8F6F-EDA491FD457D">   	<defs id="_B62CBA6E-E2A8-4528-8F6F-EDA491FD457D__B62CBA6E-E2A8-4528-8F6F-EDA491FD457D_17"> 		<radialGradient id="_B62CBA6E-E2A8-4528-8F6F-EDA491FD457Dbackground" cx="10%" cy="10%" r="100%" fx="10%" fy="10%"> 			<stop offset="0%" stop-color="#ffffff" stop-opacity="1" id="_B62CBA6E-E2A8-4528-8F6F-EDA491FD457D__B62CBA6E-E2A8-4528-8F6F-EDA491FD457D_18"/> 			<stop id="_B62CBA6E-E2A8-4528-8F6F-EDA491FD457Dfill_el" offset="100%" stop-color="#fafad2" stop-opacity="1"/> 		</radialGradient> 		<radialGradient id="_B62CBA6E-E2A8-4528-8F6F-EDA491FD457Dborderbackground" cx="10%" cy="10%" r="100%" fx="10%" fy="10%"> 			<stop offset="0%" stop-color="#ffffff" stop-opacity="1" id="_B62CBA6E-E2A8-4528-8F6F-EDA491FD457D__B62CBA6E-E2A8-4528-8F6F-EDA491FD457D_19"/> 			<stop id="_B62CBA6E-E2A8-4528-8F6F-EDA491FD457Dfill_border" offset="100%" stop-color="#000000" stop-opacity="1" stroke="#000000"/> 		</radialGradient> 	</defs> 	 	<rect id="_B62CBA6E-E2A8-4528-8F6F-EDA491FD457Dtext_frame" oryx:anchors="bottom top right left" x="1" y="1" width="94" height="79" rx="10" ry="10" stroke="none" stroke-width="0" fill="none"/> 	<rect id="_B62CBA6E-E2A8-4528-8F6F-EDA491FD457Dbg_frame" oryx:resize="vertical horizontal" x="0" y="0" width="100" height="80" rx="10" ry="10" stroke="#000000" stroke-width="1" fill="url(#_B62CBA6E-E2A8-4528-8F6F-EDA491FD457Dbackground) #ffffcc"/> 		<text font-size="12" id="_B62CBA6E-E2A8-4528-8F6F-EDA491FD457Dtext_name" x="50" y="40" oryx:align="middle center" oryx:fittoelem="text_frame" stroke="black" text-anchor="middle" stroke-width="0pt" letter-spacing="-0.01px" fill="#000000" transform="rotate(0 50 40)" visibility="inherit" oryx:fontSize="12"><tspan x="50" y="40" dy="5">Task One</tspan></text>     <g id="_B62CBA6E-E2A8-4528-8F6F-EDA491FD457DmanualTask" transform="scale(0.7,0.7) translate(8,8)" display="none">     	<path oryx:anchors="top left" id="_B62CBA6E-E2A8-4528-8F6F-EDA491FD457Dframe" style="opacity:1;fill:none;fill-opacity:1;stroke-width:1" d="M0.5,3.751l4.083-3.25c0,0,11.166,0.083,12.083,0.083s-2.417,2.917-1.5,2.917     s11.667,0,12.584,0c1.166,1.708-0.168,3.167-0.834,3.667s0.875,1.917-1,4.417c-0.75,0.25,0.75,1.875-1.333,3.333     c-1.167,0.583,0.583,1.542-1.25,2.833c-1.167,0-20.833,0.083-20.833,0.083l-2-1.333V3.751z" stroke="#000000"/> 		<path id="_B62CBA6E-E2A8-4528-8F6F-EDA491FD457Dframe2" oryx:anchors="top left" style="opacity:1;fill:none;stroke-width:2" d="M 13.5 7 L 27 7" stroke="#000000"/> 		<path id="_B62CBA6E-E2A8-4528-8F6F-EDA491FD457Dframe3" oryx:anchors="top left" style="opacity:1;fill:none;stroke-width:2" d="M 13.5 11 L 26 11" stroke="#000000"/> 		<path id="_B62CBA6E-E2A8-4528-8F6F-EDA491FD457Dframe4" oryx:anchors="top left" style="opacity:1;fill:none;stroke-width:1.5" d="M 14 14.5 L 25 14.5" stroke="#000000"/> 		<path id="_B62CBA6E-E2A8-4528-8F6F-EDA491FD457Dframe5" oryx:anchors="top left" style="opacity:1;fill:none;stroke-width:1.5" d="M 8.2 3.1 L 15 3.1" stroke="#000000"/> 	</g> 	 	<g id="_B62CBA6E-E2A8-4528-8F6F-EDA491FD457DbusinessRuleTask" transform="scale(0.7,0.7) translate(8,8)" display="none"> 		<rect id="_B62CBA6E-E2A8-4528-8F6F-EDA491FD457Dframe6" oryx:anchors="top left" x="0" y="0" width="22" height="4" style="opacity:1;fill:#B3B1B3;fill-opacity:1;" stroke="#000000"/> 		<rect id="_B62CBA6E-E2A8-4528-8F6F-EDA491FD457Dframe7" oryx:anchors="top left" x="0" y="4" style="opacity:1;fill:none;" width="22" height="12" stroke="#000000"/> 		<path id="_B62CBA6E-E2A8-4528-8F6F-EDA491FD457Dframe8" oryx:anchors="top left" style="opacity:1;fill:none;" d="M 0 10 L 22 10" stroke="#000000"/> 		<path id="_B62CBA6E-E2A8-4528-8F6F-EDA491FD457Dframe9" oryx:anchors="top left" style="opacity:1; fill:none;" d="M 7 4 L 7 16" stroke="#000000"/> 	</g> 	 	<g id="_B62CBA6E-E2A8-4528-8F6F-EDA491FD457DscriptTask" transform="scale(0.7,0.7) translate(8,8)" display="none"> 		<path oryx:anchors="top left" id="_B62CBA6E-E2A8-4528-8F6F-EDA491FD457Dframe10" style="opacity:1;fill:none;" stroke="#000000" d="M6.402,0.5h14.5c0,0-5.833,2.833-5.833,5.583s4.417,6,4.417,9.167    s-4.167,5.083-4.167,5.083H0.235c0,0,5-2.667,5-5s-4.583-6.75-4.583-9.25S6.402,0.5,6.402,0.5z"/> 		<path oryx:anchors="top left" id="_B62CBA6E-E2A8-4528-8F6F-EDA491FD457Dframe11" style="opacity:1;fill:none;stroke-width:1.5" d="M 3.5 4.5 L 13.5 4.5" stroke="#000000"/> 		<path oryx:anchors="top left" id="_B62CBA6E-E2A8-4528-8F6F-EDA491FD457Dframe12" style="opacity:1;fill:none;stroke-width:1.5" d="M 3.8 8.5 L 13.8 8.5" stroke="#000000"/> 		<path oryx:anchors="top left" id="_B62CBA6E-E2A8-4528-8F6F-EDA491FD457Dframe13" style="opacity:1;fill:none;stroke-width:1.5" d="M 6.3 12.5 L 16.3 12.5" stroke="#000000"/> 		<path oryx:anchors="top left" id="_B62CBA6E-E2A8-4528-8F6F-EDA491FD457Dframe14" style="opacity:1;fill:none;stroke-width:1.5" d="M 6.5 16.5 L 16.5 16.5" stroke="#000000"/> 	</g> 	 	<g id="_B62CBA6E-E2A8-4528-8F6F-EDA491FD457DuserTask" transform="scale(0.7,0.7) translate(8,8)" display="inherit"> 		<path id="_B62CBA6E-E2A8-4528-8F6F-EDA491FD457Dframe15" oryx:anchors="top left" style="opacity:1;fill:#F4F6F7" stroke="#000000" d="M0.585,24.167h24.083v-7.833c0,0-2.333-3.917-7.083-5.167h-9.25    c-4.417,1.333-7.833,5.75-7.833,5.75L0.585,24.167z"/> 		<path id="_B62CBA6E-E2A8-4528-8F6F-EDA491FD457Dframe16" oryx:anchors="top left" style="opacity:1;fill:none" d="M 6 20 L 6 24" stroke="#000000"/> 		<path id="_B62CBA6E-E2A8-4528-8F6F-EDA491FD457Dframe17" oryx:anchors="top left" style="opacity:1;fill:none" d="M 20 20 L 20 24" stroke="#000000"/> 		<circle id="_B62CBA6E-E2A8-4528-8F6F-EDA491FD457Dframe18" oryx:anchors="top left" fill="black" cx="13.002" cy="5.916" r="5.417" stroke="#000000"/> 		<path id="_B62CBA6E-E2A8-4528-8F6F-EDA491FD457Dframe19" oryx:anchors="top left" style="opacity:1;fill:#F0EFF0;" stroke="#000000" d="M8.043,7.083c0,0,2.814-2.426,5.376-1.807s4.624-0.693,4.624-0.693    c0.25,1.688,0.042,3.75-1.458,5.584c0,0,1.083,0.75,1.083,1.5s0.125,1.875-1,3s-5.5,1.25-6.75,0S8.668,12.834,8.668,12    s0.583-1.25,1.25-1.917C8.835,9.5,7.419,7.708,8.043,7.083z"/> 	</g> 	 	<g id="_B62CBA6E-E2A8-4528-8F6F-EDA491FD457DserviceTask" transform="scale(0.7,0.7) translate(8,8)" display="none"> 		<polygon oryx:anchors="top left" id="_B62CBA6E-E2A8-4528-8F6F-EDA491FD457Dframe20" style="opacity:1;fill:#ffffff" stroke="#000000" points="15.392,5.064 17.954,2.502 20.347,4.895 17.786,7.455     18.729,9.732 22.353,9.732 22.353,13.115 18.731,13.115 17.788,15.392 20.351,17.955 17.958,20.347 15.397,17.786 13.12,18.729     13.12,22.353 9.737,22.353 9.737,18.731 7.46,17.788 4.897,20.35 2.506,17.958 5.066,15.397 4.124,13.12 0.5,13.12 0.5,9.737     4.121,9.737 5.065,7.461 2.503,4.898 4.895,2.506 7.455,5.066 9.732,4.125 9.732,0.5 13.116,0.5 13.116,4.121 "/> 		<circle oryx:anchors="top left" id="_B62CBA6E-E2A8-4528-8F6F-EDA491FD457Dframe21" style="opacity:1;fill:none" stroke="#000000" cx="11.427" cy="11.426" r="3.714"/> 		<polygon oryx:anchors="top left" id="_B62CBA6E-E2A8-4528-8F6F-EDA491FD457Dframe22" style="opacity:1;fill:#ffffff" stroke="#000000" points="21.392,11.064 23.954,8.502 26.347,10.895 23.786,13.455     24.729,15.732 28.353,15.732 28.353,19.115 24.731,19.115 23.788,21.392 26.351,23.955 23.958,26.347 21.397,23.786 19.12,24.729     19.12,28.353 15.737,28.353 15.737,24.731 13.46,23.788 10.897,26.35 8.506,23.958 11.066,21.397 10.124,19.12 6.5,19.12     6.5,15.737 10.121,15.737 11.065,13.461 8.503,10.898 10.895,8.506 13.455,11.066 15.732,10.125 15.732,6.5 19.116,6.5     19.116,10.121 "/> 		<circle oryx:anchors="top left" id="_B62CBA6E-E2A8-4528-8F6F-EDA491FD457Dframe23" style="opacity:1;fill:none;" stroke="#000000" cx="17.427" cy="17.426" r="3.714"/> 	</g> 	 	<g id="_B62CBA6E-E2A8-4528-8F6F-EDA491FD457DsendTask" display="none"> 		<path id="_B62CBA6E-E2A8-4528-8F6F-EDA491FD457Dstframe24" oryx:anchors="left top" stroke="#FFFFFF" fill="black" stroke-width="1" d="M8,11 L8,21 L24,21 L24,11 L16,17z"/> 		<path id="_B62CBA6E-E2A8-4528-8F6F-EDA491FD457Dstframe25" oryx:anchors="left top" stroke="#FFFFFF" fill="black" stroke-width="1" d="M7,10 L16,17 L25 10z"/> 	</g> 	 	<g id="_B62CBA6E-E2A8-4528-8F6F-EDA491FD457DreceiveTask" display="none"> 		<path id="_B62CBA6E-E2A8-4528-8F6F-EDA491FD457Dframe26" oryx:anchors="left top" stroke="#000000" fill="none" stroke-width="1" d="M8,11 L8,21 L24,21 L24,11z M8,11 L16,17 L24,11"/> 	</g> 	 	<g id="_B62CBA6E-E2A8-4528-8F6F-EDA491FD457Dnone" display="inherit"/>  	<g id="_B62CBA6E-E2A8-4528-8F6F-EDA491FD457Dsequential" display="none">         <path oryx:anchors="bottom" fill="none" stroke="#000000" stroke-width="2" d="M46,76h10M46,72h10 M46,68h10" id="_B62CBA6E-E2A8-4528-8F6F-EDA491FD457D__B62CBA6E-E2A8-4528-8F6F-EDA491FD457D_20"/>     </g>   </g></g><g class="children" style="overflow:hidden"/><g class="edge"/></g><g class="controls"><g class="dockers"/><g class="magnets" transform="translate(125, 77)"><g pointer-events="all" display="none" transform="translate(-7, 12)"><circle cx="8" cy="8" r="4" stroke="none" fill="red" fill-opacity="0.3"/></g><g pointer-events="all" display="none" transform="translate(-7, 32)"><circle cx="8" cy="8" r="4" stroke="none" fill="red" fill-opacity="0.3"/></g><g pointer-events="all" display="none" transform="translate(-7, 52)"><circle cx="8" cy="8" r="4" stroke="none" fill="red" fill-opacity="0.3"/></g><g pointer-events="all" display="none" transform="translate(17, 71)"><circle cx="8" cy="8" r="4" stroke="none" fill="red" fill-opacity="0.3"/></g><g pointer-events="all" display="none" transform="translate(42, 71)"><circle cx="8" cy="8" r="4" stroke="none" fill="red" fill-opacity="0.3"/></g><g pointer-events="all" display="none" transform="translate(67, 71)"><circle cx="8" cy="8" r="4" stroke="none" fill="red" fill-opacity="0.3"/></g><g pointer-events="all" display="none" transform="translate(91, 12)"><circle cx="8" cy="8" r="4" stroke="none" fill="red" fill-opacity="0.3"/></g><g pointer-events="all" display="none" transform="translate(91, 32)"><circle cx="8" cy="8" r="4" stroke="none" fill="red" fill-opacity="0.3"/></g><g pointer-events="all" display="none" transform="translate(91, 52)"><circle cx="8" cy="8" r="4" stroke="none" fill="red" fill-opacity="0.3"/></g><g pointer-events="all" display="none" transform="translate(17, -7)"><circle cx="8" cy="8" r="4" stroke="none" fill="red" fill-opacity="0.3"/></g><g pointer-events="all" display="none" transform="translate(42, -7)"><circle cx="8" cy="8" r="4" stroke="none" fill="red" fill-opacity="0.3"/></g><g pointer-events="all" display="none" transform="translate(67, -7)"><circle cx="8" cy="8" r="4" stroke="none" fill="red" fill-opacity="0.3"/></g><g pointer-events="all" display="none" transform="translate(42, 32)"><circle cx="8" cy="8" r="4" stroke="none" fill="red" fill-opacity="0.3"/></g></g></g></g><g id="_BDA9D5B6-5341-4B2E-91DA-0D16FA0A9E7B" bpmn2nodeid="_9B4B5F9D-0D51-4C9D-8853-0500966286D2"><g class="stencils" transform="translate(275, 103)"><g class="me"><g pointer-events="fill" id="_BDA9D5B6-5341-4B2E-91DA-0D16FA0A9E7B">      <defs id="_BDA9D5B6-5341-4B2E-91DA-0D16FA0A9E7B__BDA9D5B6-5341-4B2E-91DA-0D16FA0A9E7B_5"> 		<radialGradient id="_BDA9D5B6-5341-4B2E-91DA-0D16FA0A9E7Bbackground" cx="10%" cy="10%" r="100%" fx="10%" fy="10%"> 			<stop offset="0%" stop-color="#ffffff" stop-opacity="1" id="_BDA9D5B6-5341-4B2E-91DA-0D16FA0A9E7B__BDA9D5B6-5341-4B2E-91DA-0D16FA0A9E7B_6"/> 			<stop id="_BDA9D5B6-5341-4B2E-91DA-0D16FA0A9E7Bfill_el" offset="100%" stop-color="#ff6347" stop-opacity="1"/> 		</radialGradient> 	</defs> 	     <circle id="_BDA9D5B6-5341-4B2E-91DA-0D16FA0A9E7Bbg_frame" cx="14" cy="14" r="14" stroke="#000000" fill="url(#_BDA9D5B6-5341-4B2E-91DA-0D16FA0A9E7Bbackground) white" stroke-width="3"/> 	<text font-size="11" id="_BDA9D5B6-5341-4B2E-91DA-0D16FA0A9E7Btext_name" x="14" y="30" oryx:align="top center" stroke="black" stroke-width="0pt" letter-spacing="-0.01px" fill="#000000" text-anchor="middle" transform="rotate(0 14 30)" visibility="inherit" oryx:fontSize="11"/>   </g></g><g class="children" style="overflow:hidden"/><g class="edge"/></g><g class="controls"><g class="dockers"/><g class="magnets" transform="translate(275, 103)"><g pointer-events="all" display="none" transform="translate(6, 6)"><circle cx="8" cy="8" r="4" stroke="none" fill="red" fill-opacity="0.3"/></g></g></g></g></g><g class="edge"/></g><g class="controls"><g class="dockers"/><g class="magnets" transform="translate(300, 70)"><g pointer-events="all" display="none" transform="translate(-7, 65.125)"><circle cx="8" cy="8" r="4" stroke="none" fill="red" fill-opacity="0.3"/></g><g pointer-events="all" display="none" transform="translate(-7, 109)"><circle cx="8" cy="8" r="4" stroke="none" fill="red" fill-opacity="0.3"/></g><g pointer-events="all" display="none" transform="translate(-7, 152.875)"><circle cx="8" cy="8" r="4" stroke="none" fill="red" fill-opacity="0.3"/></g><g pointer-events="all" display="none" transform="translate(107.15, 225)"><circle cx="8" cy="8" r="4" stroke="none" fill="red" fill-opacity="0.3"/></g><g pointer-events="all" display="none" transform="translate(156.5, 225)"><circle cx="8" cy="8" r="4" stroke="none" fill="red" fill-opacity="0.3"/></g><g pointer-events="all" display="none" transform="translate(205.85, 225)"><circle cx="8" cy="8" r="4" stroke="none" fill="red" fill-opacity="0.3"/></g><g pointer-events="all" display="none" transform="translate(320, 65.125)"><circle cx="8" cy="8" r="4" stroke="none" fill="red" fill-opacity="0.3"/></g><g pointer-events="all" display="none" transform="translate(320, 109)"><circle cx="8" cy="8" r="4" stroke="none" fill="red" fill-opacity="0.3"/></g><g pointer-events="all" display="none" transform="translate(320, 152.875)"><circle cx="8" cy="8" r="4" stroke="none" fill="red" fill-opacity="0.3"/></g><g pointer-events="all" display="none" transform="translate(107.15, -7)"><circle cx="8" cy="8" r="4" stroke="none" fill="red" fill-opacity="0.3"/></g><g pointer-events="all" display="none" transform="translate(156.5, -7)"><circle cx="8" cy="8" r="4" stroke="none" fill="red" fill-opacity="0.3"/></g><g pointer-events="all" display="none" transform="translate(205.85, -7)"><circle cx="8" cy="8" r="4" stroke="none" fill="red" fill-opacity="0.3"/></g><g pointer-events="all" display="none" transform="translate(156.5, 109)"><circle cx="8" cy="8" r="4" stroke="none" fill="red" fill-opacity="0.3"/></g></g></g></g><g id="_76AF6543-DA02-4FE9-BDDF-6DE65C35EC45" bpmn2nodeid="_42B0A301-C37C-47C1-8E5B-95D92C97FAD2"><g class="stencils" transform="translate(720, 173)"><g class="me"><g pointer-events="fill" id="_76AF6543-DA02-4FE9-BDDF-6DE65C35EC45">       <defs id="_76AF6543-DA02-4FE9-BDDF-6DE65C35EC45__76AF6543-DA02-4FE9-BDDF-6DE65C35EC45_5"> 		<radialGradient id="_76AF6543-DA02-4FE9-BDDF-6DE65C35EC45background" cx="10%" cy="10%" r="100%" fx="10%" fy="10%"> 			<stop offset="0%" stop-color="#ffffff" stop-opacity="1" id="_76AF6543-DA02-4FE9-BDDF-6DE65C35EC45__76AF6543-DA02-4FE9-BDDF-6DE65C35EC45_6"/> 			<stop id="_76AF6543-DA02-4FE9-BDDF-6DE65C35EC45fill_el" offset="100%" stop-color="#ff6347" stop-opacity="1"/> 		</radialGradient> 		<radialGradient id="_76AF6543-DA02-4FE9-BDDF-6DE65C35EC45borderbackground" cx="10%" cy="10%" r="100%" fx="10%" fy="10%"> 			<stop offset="0%" stop-color="#ffffff" stop-opacity="1" id="_76AF6543-DA02-4FE9-BDDF-6DE65C35EC45__76AF6543-DA02-4FE9-BDDF-6DE65C35EC45_7"/> 			<stop id="_76AF6543-DA02-4FE9-BDDF-6DE65C35EC45fill_border" offset="100%" stop-color="#000000" stop-opacity="1" stroke="#000000"/> 		</radialGradient> 	</defs> 	     <circle id="_76AF6543-DA02-4FE9-BDDF-6DE65C35EC45bg_frame" cx="14" cy="14" r="14" stroke="#000000" fill="url(#_76AF6543-DA02-4FE9-BDDF-6DE65C35EC45background) white" stroke-width="3"/>          <circle id="_76AF6543-DA02-4FE9-BDDF-6DE65C35EC45frame" cx="14" cy="14" r="9" stroke="#000000" fill="url(#_76AF6543-DA02-4FE9-BDDF-6DE65C35EC45borderbackground)" stroke-width="1"/> 	<text font-size="11" id="_76AF6543-DA02-4FE9-BDDF-6DE65C35EC45text_name" x="14" y="30" oryx:align="top center" stroke="black" stroke-width="0pt" letter-spacing="-0.01px" fill="#000000" text-anchor="middle" transform="rotate(0 14 30)" visibility="inherit" oryx:fontSize="11"/>   </g></g><g class="children" style="overflow:hidden"/><g class="edge"/></g><g class="controls"><g class="dockers"/><g class="magnets" transform="translate(720, 173)"><g pointer-events="all" display="none" transform="translate(6, 6)"><circle cx="8" cy="8" r="4" stroke="none" fill="red" fill-opacity="0.3"/></g></g></g></g><g id="_15780D89-F836-4ADB-895D-A9C379DF2F7F" bpmn2nodeid="_08C96BD7-9F49-4CF2-8C3C-B3F5220E4C7F"><g class="stencils" transform="translate(474, 360)"><g class="me"><g pointer-events="fill" oryx:minimumSize="50 40" id="_15780D89-F836-4ADB-895D-A9C379DF2F7F">   	<defs id="_15780D89-F836-4ADB-895D-A9C379DF2F7F__15780D89-F836-4ADB-895D-A9C379DF2F7F_17"> 		<radialGradient id="_15780D89-F836-4ADB-895D-A9C379DF2F7Fbackground" cx="10%" cy="10%" r="100%" fx="10%" fy="10%"> 			<stop offset="0%" stop-color="#ffffff" stop-opacity="1" id="_15780D89-F836-4ADB-895D-A9C379DF2F7F__15780D89-F836-4ADB-895D-A9C379DF2F7F_18"/> 			<stop id="_15780D89-F836-4ADB-895D-A9C379DF2F7Ffill_el" offset="100%" stop-color="#fafad2" stop-opacity="1"/> 		</radialGradient> 		<radialGradient id="_15780D89-F836-4ADB-895D-A9C379DF2F7Fborderbackground" cx="10%" cy="10%" r="100%" fx="10%" fy="10%"> 			<stop offset="0%" stop-color="#ffffff" stop-opacity="1" id="_15780D89-F836-4ADB-895D-A9C379DF2F7F__15780D89-F836-4ADB-895D-A9C379DF2F7F_19"/> 			<stop id="_15780D89-F836-4ADB-895D-A9C379DF2F7Ffill_border" offset="100%" stop-color="#000000" stop-opacity="1" stroke="#000000"/> 		</radialGradient> 	</defs> 	 	<rect id="_15780D89-F836-4ADB-895D-A9C379DF2F7Ftext_frame" oryx:anchors="bottom top right left" x="1" y="1" width="94" height="79" rx="10" ry="10" stroke="none" stroke-width="0" fill="none"/> 	<rect id="_15780D89-F836-4ADB-895D-A9C379DF2F7Fbg_frame" oryx:resize="vertical horizontal" x="0" y="0" width="100" height="80" rx="10" ry="10" stroke="#000000" stroke-width="1" fill="url(#_15780D89-F836-4ADB-895D-A9C379DF2F7Fbackground) #ffffcc"/> 		<text font-size="12" id="_15780D89-F836-4ADB-895D-A9C379DF2F7Ftext_name" x="50" y="40" oryx:align="middle center" oryx:fittoelem="text_frame" stroke="black" text-anchor="middle" stroke-width="0pt" letter-spacing="-0.01px" fill="#000000" transform="rotate(0 50 40)" visibility="inherit" oryx:fontSize="12"><tspan x="50" y="40" dy="5">Task Two</tspan></text>     <g id="_15780D89-F836-4ADB-895D-A9C379DF2F7FmanualTask" transform="scale(0.7,0.7) translate(8,8)" display="none">     	<path oryx:anchors="top left" id="_15780D89-F836-4ADB-895D-A9C379DF2F7Fframe" style="opacity:1;fill:none;fill-opacity:1;stroke-width:1" d="M0.5,3.751l4.083-3.25c0,0,11.166,0.083,12.083,0.083s-2.417,2.917-1.5,2.917     s11.667,0,12.584,0c1.166,1.708-0.168,3.167-0.834,3.667s0.875,1.917-1,4.417c-0.75,0.25,0.75,1.875-1.333,3.333     c-1.167,0.583,0.583,1.542-1.25,2.833c-1.167,0-20.833,0.083-20.833,0.083l-2-1.333V3.751z" stroke="#000000"/> 		<path id="_15780D89-F836-4ADB-895D-A9C379DF2F7Fframe2" oryx:anchors="top left" style="opacity:1;fill:none;stroke-width:2" d="M 13.5 7 L 27 7" stroke="#000000"/> 		<path id="_15780D89-F836-4ADB-895D-A9C379DF2F7Fframe3" oryx:anchors="top left" style="opacity:1;fill:none;stroke-width:2" d="M 13.5 11 L 26 11" stroke="#000000"/> 		<path id="_15780D89-F836-4ADB-895D-A9C379DF2F7Fframe4" oryx:anchors="top left" style="opacity:1;fill:none;stroke-width:1.5" d="M 14 14.5 L 25 14.5" stroke="#000000"/> 		<path id="_15780D89-F836-4ADB-895D-A9C379DF2F7Fframe5" oryx:anchors="top left" style="opacity:1;fill:none;stroke-width:1.5" d="M 8.2 3.1 L 15 3.1" stroke="#000000"/> 	</g> 	 	<g id="_15780D89-F836-4ADB-895D-A9C379DF2F7FbusinessRuleTask" transform="scale(0.7,0.7) translate(8,8)" display="none"> 		<rect id="_15780D89-F836-4ADB-895D-A9C379DF2F7Fframe6" oryx:anchors="top left" x="0" y="0" width="22" height="4" style="opacity:1;fill:#B3B1B3;fill-opacity:1;" stroke="#000000"/> 		<rect id="_15780D89-F836-4ADB-895D-A9C379DF2F7Fframe7" oryx:anchors="top left" x="0" y="4" style="opacity:1;fill:none;" width="22" height="12" stroke="#000000"/> 		<path id="_15780D89-F836-4ADB-895D-A9C379DF2F7Fframe8" oryx:anchors="top left" style="opacity:1;fill:none;" d="M 0 10 L 22 10" stroke="#000000"/> 		<path id="_15780D89-F836-4ADB-895D-A9C379DF2F7Fframe9" oryx:anchors="top left" style="opacity:1; fill:none;" d="M 7 4 L 7 16" stroke="#000000"/> 	</g> 	 	<g id="_15780D89-F836-4ADB-895D-A9C379DF2F7FscriptTask" transform="scale(0.7,0.7) translate(8,8)" display="none"> 		<path oryx:anchors="top left" id="_15780D89-F836-4ADB-895D-A9C379DF2F7Fframe10" style="opacity:1;fill:none;" stroke="#000000" d="M6.402,0.5h14.5c0,0-5.833,2.833-5.833,5.583s4.417,6,4.417,9.167    s-4.167,5.083-4.167,5.083H0.235c0,0,5-2.667,5-5s-4.583-6.75-4.583-9.25S6.402,0.5,6.402,0.5z"/> 		<path oryx:anchors="top left" id="_15780D89-F836-4ADB-895D-A9C379DF2F7Fframe11" style="opacity:1;fill:none;stroke-width:1.5" d="M 3.5 4.5 L 13.5 4.5" stroke="#000000"/> 		<path oryx:anchors="top left" id="_15780D89-F836-4ADB-895D-A9C379DF2F7Fframe12" style="opacity:1;fill:none;stroke-width:1.5" d="M 3.8 8.5 L 13.8 8.5" stroke="#000000"/> 		<path oryx:anchors="top left" id="_15780D89-F836-4ADB-895D-A9C379DF2F7Fframe13" style="opacity:1;fill:none;stroke-width:1.5" d="M 6.3 12.5 L 16.3 12.5" stroke="#000000"/> 		<path oryx:anchors="top left" id="_15780D89-F836-4ADB-895D-A9C379DF2F7Fframe14" style="opacity:1;fill:none;stroke-width:1.5" d="M 6.5 16.5 L 16.5 16.5" stroke="#000000"/> 	</g> 	 	<g id="_15780D89-F836-4ADB-895D-A9C379DF2F7FuserTask" transform="scale(0.7,0.7) translate(8,8)" display="inherit"> 		<path id="_15780D89-F836-4ADB-895D-A9C379DF2F7Fframe15" oryx:anchors="top left" style="opacity:1;fill:#F4F6F7" stroke="#000000" d="M0.585,24.167h24.083v-7.833c0,0-2.333-3.917-7.083-5.167h-9.25    c-4.417,1.333-7.833,5.75-7.833,5.75L0.585,24.167z"/> 		<path id="_15780D89-F836-4ADB-895D-A9C379DF2F7Fframe16" oryx:anchors="top left" style="opacity:1;fill:none" d="M 6 20 L 6 24" stroke="#000000"/> 		<path id="_15780D89-F836-4ADB-895D-A9C379DF2F7Fframe17" oryx:anchors="top left" style="opacity:1;fill:none" d="M 20 20 L 20 24" stroke="#000000"/> 		<circle id="_15780D89-F836-4ADB-895D-A9C379DF2F7Fframe18" oryx:anchors="top left" fill="black" cx="13.002" cy="5.916" r="5.417" stroke="#000000"/> 		<path id="_15780D89-F836-4ADB-895D-A9C379DF2F7Fframe19" oryx:anchors="top left" style="opacity:1;fill:#F0EFF0;" stroke="#000000" d="M8.043,7.083c0,0,2.814-2.426,5.376-1.807s4.624-0.693,4.624-0.693    c0.25,1.688,0.042,3.75-1.458,5.584c0,0,1.083,0.75,1.083,1.5s0.125,1.875-1,3s-5.5,1.25-6.75,0S8.668,12.834,8.668,12    s0.583-1.25,1.25-1.917C8.835,9.5,7.419,7.708,8.043,7.083z"/> 	</g> 	 	<g id="_15780D89-F836-4ADB-895D-A9C379DF2F7FserviceTask" transform="scale(0.7,0.7) translate(8,8)" display="none"> 		<polygon oryx:anchors="top left" id="_15780D89-F836-4ADB-895D-A9C379DF2F7Fframe20" style="opacity:1;fill:#ffffff" stroke="#000000" points="15.392,5.064 17.954,2.502 20.347,4.895 17.786,7.455     18.729,9.732 22.353,9.732 22.353,13.115 18.731,13.115 17.788,15.392 20.351,17.955 17.958,20.347 15.397,17.786 13.12,18.729     13.12,22.353 9.737,22.353 9.737,18.731 7.46,17.788 4.897,20.35 2.506,17.958 5.066,15.397 4.124,13.12 0.5,13.12 0.5,9.737     4.121,9.737 5.065,7.461 2.503,4.898 4.895,2.506 7.455,5.066 9.732,4.125 9.732,0.5 13.116,0.5 13.116,4.121 "/> 		<circle oryx:anchors="top left" id="_15780D89-F836-4ADB-895D-A9C379DF2F7Fframe21" style="opacity:1;fill:none" stroke="#000000" cx="11.427" cy="11.426" r="3.714"/> 		<polygon oryx:anchors="top left" id="_15780D89-F836-4ADB-895D-A9C379DF2F7Fframe22" style="opacity:1;fill:#ffffff" stroke="#000000" points="21.392,11.064 23.954,8.502 26.347,10.895 23.786,13.455     24.729,15.732 28.353,15.732 28.353,19.115 24.731,19.115 23.788,21.392 26.351,23.955 23.958,26.347 21.397,23.786 19.12,24.729     19.12,28.353 15.737,28.353 15.737,24.731 13.46,23.788 10.897,26.35 8.506,23.958 11.066,21.397 10.124,19.12 6.5,19.12     6.5,15.737 10.121,15.737 11.065,13.461 8.503,10.898 10.895,8.506 13.455,11.066 15.732,10.125 15.732,6.5 19.116,6.5     19.116,10.121 "/> 		<circle oryx:anchors="top left" id="_15780D89-F836-4ADB-895D-A9C379DF2F7Fframe23" style="opacity:1;fill:none;" stroke="#000000" cx="17.427" cy="17.426" r="3.714"/> 	</g> 	 	<g id="_15780D89-F836-4ADB-895D-A9C379DF2F7FsendTask" display="none"> 		<path id="_15780D89-F836-4ADB-895D-A9C379DF2F7Fstframe24" oryx:anchors="left top" stroke="#FFFFFF" fill="black" stroke-width="1" d="M8,11 L8,21 L24,21 L24,11 L16,17z"/> 		<path id="_15780D89-F836-4ADB-895D-A9C379DF2F7Fstframe25" oryx:anchors="left top" stroke="#FFFFFF" fill="black" stroke-width="1" d="M7,10 L16,17 L25 10z"/> 	</g> 	 	<g id="_15780D89-F836-4ADB-895D-A9C379DF2F7FreceiveTask" display="none"> 		<path id="_15780D89-F836-4ADB-895D-A9C379DF2F7Fframe26" oryx:anchors="left top" stroke="#000000" fill="none" stroke-width="1" d="M8,11 L8,21 L24,21 L24,11z M8,11 L16,17 L24,11"/> 	</g> 	 	<g id="_15780D89-F836-4ADB-895D-A9C379DF2F7Fnone" display="inherit"/>  	<g id="_15780D89-F836-4ADB-895D-A9C379DF2F7Fsequential" display="none">         <path oryx:anchors="bottom" fill="none" stroke="#000000" stroke-width="2" d="M46,76h10M46,72h10 M46,68h10" id="_15780D89-F836-4ADB-895D-A9C379DF2F7F__15780D89-F836-4ADB-895D-A9C379DF2F7F_20"/>     </g>   </g></g><g class="children" style="overflow:hidden"/><g class="edge"/></g><g class="controls"><g class="dockers"/><g class="magnets" transform="translate(474, 360)"><g pointer-events="all" display="none" transform="translate(-7, 12)"><circle cx="8" cy="8" r="4" stroke="none" fill="red" fill-opacity="0.3"/></g><g pointer-events="all" display="none" transform="translate(-7, 32)"><circle cx="8" cy="8" r="4" stroke="none" fill="red" fill-opacity="0.3"/></g><g pointer-events="all" display="none" transform="translate(-7, 52)"><circle cx="8" cy="8" r="4" stroke="none" fill="red" fill-opacity="0.3"/></g><g pointer-events="all" display="none" transform="translate(17, 71)"><circle cx="8" cy="8" r="4" stroke="none" fill="red" fill-opacity="0.3"/></g><g pointer-events="all" display="none" transform="translate(42, 71)"><circle cx="8" cy="8" r="4" stroke="none" fill="red" fill-opacity="0.3"/></g><g pointer-events="all" display="none" transform="translate(67, 71)"><circle cx="8" cy="8" r="4" stroke="none" fill="red" fill-opacity="0.3"/></g><g pointer-events="all" display="none" transform="translate(91, 12)"><circle cx="8" cy="8" r="4" stroke="none" fill="red" fill-opacity="0.3"/></g><g pointer-events="all" display="none" transform="translate(91, 32)"><circle cx="8" cy="8" r="4" stroke="none" fill="red" fill-opacity="0.3"/></g><g pointer-events="all" display="none" transform="translate(91, 52)"><circle cx="8" cy="8" r="4" stroke="none" fill="red" fill-opacity="0.3"/></g><g pointer-events="all" display="none" transform="translate(17, -7)"><circle cx="8" cy="8" r="4" stroke="none" fill="red" fill-opacity="0.3"/></g><g pointer-events="all" display="none" transform="translate(42, -7)"><circle cx="8" cy="8" r="4" stroke="none" fill="red" fill-opacity="0.3"/></g><g pointer-events="all" display="none" transform="translate(67, -7)"><circle cx="8" cy="8" r="4" stroke="none" fill="red" fill-opacity="0.3"/></g><g pointer-events="all" display="none" transform="translate(42, 32)"><circle cx="8" cy="8" r="4" stroke="none" fill="red" fill-opacity="0.3"/></g></g></g></g><g id="_D047F4E7-FAEE-423C-9915-17A586CF9EE5" bpmn2nodeid="_E912ECB3-3228-4656-B4EF-3C4CCCA62D1F"><g class="stencils" transform="translate(630, 386)"><g class="me"><g pointer-events="fill" id="_D047F4E7-FAEE-423C-9915-17A586CF9EE5">      <defs id="_D047F4E7-FAEE-423C-9915-17A586CF9EE5__D047F4E7-FAEE-423C-9915-17A586CF9EE5_5"> 		<radialGradient id="_D047F4E7-FAEE-423C-9915-17A586CF9EE5background" cx="10%" cy="10%" r="100%" fx="10%" fy="10%"> 			<stop offset="0%" stop-color="#ffffff" stop-opacity="1" id="_D047F4E7-FAEE-423C-9915-17A586CF9EE5__D047F4E7-FAEE-423C-9915-17A586CF9EE5_6"/> 			<stop id="_D047F4E7-FAEE-423C-9915-17A586CF9EE5fill_el" offset="100%" stop-color="#ff6347" stop-opacity="1"/> 		</radialGradient> 	</defs> 	     <circle id="_D047F4E7-FAEE-423C-9915-17A586CF9EE5bg_frame" cx="14" cy="14" r="14" stroke="#000000" fill="url(#_D047F4E7-FAEE-423C-9915-17A586CF9EE5background) white" stroke-width="3"/> 	<text font-size="11" id="_D047F4E7-FAEE-423C-9915-17A586CF9EE5text_name" x="14" y="30" oryx:align="top center" stroke="black" stroke-width="0pt" letter-spacing="-0.01px" fill="#000000" text-anchor="middle" transform="rotate(0 14 30)" visibility="inherit" oryx:fontSize="11"/>   </g></g><g class="children" style="overflow:hidden"/><g class="edge"/></g><g class="controls"><g class="dockers"/><g class="magnets" transform="translate(630, 386)"><g pointer-events="all" display="none" transform="translate(6, 6)"><circle cx="8" cy="8" r="4" stroke="none" fill="red" fill-opacity="0.3"/></g></g></g></g><g id="_4E077FF8-C0D5-4AAF-BACA-0E915942099B" bpmn2nodeid="_80D570F2-8710-481F-8DB7-B0650A5104D9"><g class="stencils" transform="translate(509.9591323194629, 289.59023900666193)"><g class="me"><g pointer-events="fill" id="_4E077FF8-C0D5-4AAF-BACA-0E915942099B">        <defs id="_4E077FF8-C0D5-4AAF-BACA-0E915942099B__4E077FF8-C0D5-4AAF-BACA-0E915942099B_6"> 		<radialGradient id="_4E077FF8-C0D5-4AAF-BACA-0E915942099Bbackground" cx="10%" cy="10%" r="100%" fx="10%" fy="10%"> 			<stop offset="0%" stop-color="#ffffff" stop-opacity="1" id="_4E077FF8-C0D5-4AAF-BACA-0E915942099B__4E077FF8-C0D5-4AAF-BACA-0E915942099B_7"/> 			<stop id="_4E077FF8-C0D5-4AAF-BACA-0E915942099Bfill_el" offset="100%" stop-color="#f5deb3" stop-opacity="1"/> 		</radialGradient> 	</defs>          <circle id="_4E077FF8-C0D5-4AAF-BACA-0E915942099Bbg_frame" cx="15" cy="15" r="15" stroke="#a0522d" fill="url(#_4E077FF8-C0D5-4AAF-BACA-0E915942099Bbackground) white" stroke-width="1" style="stroke-dasharray: 5.5, 3"/>     	     <circle id="_4E077FF8-C0D5-4AAF-BACA-0E915942099Bframe" cx="15" cy="15" r="12" stroke="#a0522d" fill="none" stroke-width="1" style="stroke-dasharray: 4.5, 3" display="inherit"/>          <circle id="_4E077FF8-C0D5-4AAF-BACA-0E915942099Bframe2" cx="15" cy="15" r="15" stroke="#a0522d" fill="none" stroke-width="1" display="none"/>     <circle id="_4E077FF8-C0D5-4AAF-BACA-0E915942099Bframe3" cx="15" cy="15" r="12" stroke="#a0522d" fill="none" stroke-width="1" display="none"/>          <circle id="_4E077FF8-C0D5-4AAF-BACA-0E915942099Bframe4" cx="15" cy="15" r="10" stroke="#a0522d" fill="none" stroke-width="1"/>     <path id="_4E077FF8-C0D5-4AAF-BACA-0E915942099Bframe5" d=" M15 5  L15 8  M20 6  L18.5 9  M24 10  L21 11.5  M25 15  L22 15  M24 20  L21 18.5  M20 24  L18.5 21  M15 25  L15 22  M10 24  L11.5 21  M6 20  L9 18.5  M5 15  L8 15  M6 10  L9 11.5  M10 6  L11.5 9  M17 8  L15 15  L19 15 " fill="none" stroke="#a0522d"/> 	<text font-size="11" id="_4E077FF8-C0D5-4AAF-BACA-0E915942099Btext_name" x="15" y="32" oryx:align="top center" stroke="black" stroke-width="0pt" letter-spacing="-0.01px" fill="#000000" text-anchor="middle" transform="rotate(0 15 32)" visibility="inherit" oryx:fontSize="11"/>   </g></g><g class="children" style="overflow:hidden"/><g class="edge"/></g><g class="controls"><g class="dockers"/><g class="magnets" transform="translate(509.9591323194629, 289.59023900666193)"><g pointer-events="all" display="none" transform="translate(7, 7)"><circle cx="8" cy="8" r="4" stroke="none" fill="red" fill-opacity="0.3"/></g></g></g></g></g><g class="edge"><g id="_3ED751EE-705E-418E-8F76-1CCB04346B32" bpmn2nodeid="_669BE7E8-BCBD-4C5C-8456-6B0FF1AE42CC"><g class="stencils"><g class="me"><g pointer-events="painted" bpmn2nodeid="_2CED1C17-DA61-4ACC-8664-1EE3CB5D00C1"><path id="_3ED751EE-705E-418E-8F76-1CCB04346B32_1" d="M365.6484375 187L424.1953125 187 " stroke="#000000" fill="none" stroke-width="2" stroke-linecap="round" stroke-linejoin="round" marker-start="url(#_3ED751EE-705E-418E-8F76-1CCB04346B32start)" marker-end="url(#_3ED751EE-705E-418E-8F76-1CCB04346B32end)"/></g><text id="_3ED751EE-705E-418E-8F76-1CCB04346B32text_name" font-size="12" x="379.6484375" y="173" oryx:edgePosition="startTop" stroke-width="0pt" letter-spacing="-0.01px" fill="#000000" text-anchor="start" transform="rotate(360 365.6484375 187)" visibility="inherit" oryx:fontSize="12"/></g><g class="children" style="overflow:hidden"/><g class="edge"/></g><g class="controls"><g class="dockers"/><g class="magnets"/></g></g><g id="_D142C2A2-8F57-4E38-BE10-95BA4672E4CC" bpmn2nodeid="_F376923E-C59B-46AD-A387-04F13CA17660"><g class="stencils"><g class="me"><g pointer-events="painted" bpmn2nodeid="_631CF9BF-42E7-47A7-A0C1-43A30058A6E3"><path id="_D142C2A2-8F57-4E38-BE10-95BA4672E4CC_1" d="M525.875 187L574.640625 187 " stroke="#000000" fill="none" stroke-width="2" stroke-linecap="round" stroke-linejoin="round" marker-start="url(#_D142C2A2-8F57-4E38-BE10-95BA4672E4CCstart)" marker-end="url(#_D142C2A2-8F57-4E38-BE10-95BA4672E4CCend)"/></g><text id="_D142C2A2-8F57-4E38-BE10-95BA4672E4CCtext_name" font-size="12" x="539.875" y="173" oryx:edgePosition="startTop" stroke-width="0pt" letter-spacing="-0.01px" fill="#000000" text-anchor="start" transform="rotate(360 525.875 187)" visibility="inherit" oryx:fontSize="12"/></g><g class="children" style="overflow:hidden"/><g class="edge"/></g><g class="controls"><g class="dockers"/><g class="magnets"/></g></g><g id="_AC7FB1B1-08F4-4671-A08D-8037AD3B6951" bpmn2nodeid="_FF16A279-FC6F-4ED4-ADC2-F8700F8F4045"><g class="stencils"><g class="me"><g pointer-events="painted" bpmn2nodeid="_46EBED8F-C326-47EC-B82D-EA3256C046B4"><path id="_AC7FB1B1-08F4-4671-A08D-8037AD3B6951_1" d="M210.73828125 187L299.2734375 187 " stroke="#000000" fill="none" stroke-width="2" stroke-linecap="round" stroke-linejoin="round" marker-start="url(#_AC7FB1B1-08F4-4671-A08D-8037AD3B6951start)" marker-end="url(#_AC7FB1B1-08F4-4671-A08D-8037AD3B6951end)"/></g><text id="_AC7FB1B1-08F4-4671-A08D-8037AD3B6951text_name" font-size="12" x="224.73828125" y="173" oryx:edgePosition="startTop" stroke-width="0pt" letter-spacing="-0.01px" fill="#000000" text-anchor="start" transform="rotate(360 210.73828125 187)" visibility="inherit" oryx:fontSize="12"/></g><g class="children" style="overflow:hidden"/><g class="edge"/></g><g class="controls"><g class="dockers"/><g class="magnets"/></g></g><g id="_392AFAAA-8178-41FE-B01B-77951CCD4E34" bpmn2nodeid="_97ECEE42-4E4F-45DD-9262-93F3E32B6B48"><g class="stencils"><g class="me"><g pointer-events="painted" bpmn2nodeid="_8C2961ED-B92A-411E-846A-8791ECE1C279"><path id="_392AFAAA-8178-41FE-B01B-77951CCD4E34_1" d="M629.7265625 187L719.314453125 187 " stroke="#000000" fill="none" stroke-width="2" stroke-linecap="round" stroke-linejoin="round" marker-start="url(#_392AFAAA-8178-41FE-B01B-77951CCD4E34start)" marker-end="url(#_392AFAAA-8178-41FE-B01B-77951CCD4E34end)"/></g><text id="_392AFAAA-8178-41FE-B01B-77951CCD4E34text_name" font-size="12" x="643.7265625" y="173" oryx:edgePosition="startTop" stroke-width="0pt" letter-spacing="-0.01px" fill="#000000" text-anchor="start" transform="rotate(360 629.7265625 187)" visibility="inherit" oryx:fontSize="12"/></g><g class="children" style="overflow:hidden"/><g class="edge"/></g><g class="controls"><g class="dockers"/><g class="magnets"/></g></g><g id="_FFC7A033-612B-4E99-A019-DC2F1FB981D3" bpmn2nodeid="_6FF900C3-ADA9-4CE7-95B2-06ACE1C83669"><g class="stencils"><g class="me"><g pointer-events="painted" bpmn2nodeid="_10E22B79-3406-426B-ACEC-2F6CE08C0F46"><path id="_FFC7A033-612B-4E99-A019-DC2F1FB981D3_1" d="M524.7992156331317 320.49796363661477L524.4071929874427 359.49444636395214 " stroke="#000000" fill="none" stroke-width="2" stroke-linecap="round" stroke-linejoin="round" marker-start="url(#_FFC7A033-612B-4E99-A019-DC2F1FB981D3start)" marker-end="url(#_FFC7A033-612B-4E99-A019-DC2F1FB981D3end)"/></g><text id="_FFC7A033-612B-4E99-A019-DC2F1FB981D3text_name" font-size="12" x="510.79921563313167" y="306.49796363661477" oryx:edgePosition="startTop" stroke-width="0pt" letter-spacing="-0.01px" fill="#000000" text-anchor="end" transform="rotate(-89.42403814611362 524.7992156331317 320.49796363661477)" visibility="inherit" oryx:fontSize="12"/></g><g class="children" style="overflow:hidden"/><g class="edge"/></g><g class="controls"><g class="dockers"/><g class="magnets"/></g></g><g id="_252267B1-818F-4E6C-950D-113F5E23FE3A" bpmn2nodeid="_B2DF8306-3CBD-48A8-A570-3F215290A03A"><g class="stencils"><g class="me"><g pointer-events="painted" bpmn2nodeid="_E0908A77-CB8D-4DA7-9136-B7597B614C4B"><path id="_252267B1-818F-4E6C-950D-113F5E23FE3A_1" d="M574.6875 400L629.875 400 " stroke="#000000" fill="none" stroke-width="2" stroke-linecap="round" stroke-linejoin="round" marker-start="url(#_252267B1-818F-4E6C-950D-113F5E23FE3Astart)" marker-end="url(#_252267B1-818F-4E6C-950D-113F5E23FE3Aend)"/></g><text id="_252267B1-818F-4E6C-950D-113F5E23FE3Atext_name" font-size="12" x="588.6875" y="386" oryx:edgePosition="startTop" stroke-width="0pt" letter-spacing="-0.01px" fill="#000000" text-anchor="start" transform="rotate(360 574.6875 400)" visibility="inherit" oryx:fontSize="12"/></g><g class="children" style="overflow:hidden"/><g class="edge"/></g><g class="controls"><g class="dockers"/><g class="magnets"/></g></g></g><text id="_C0B28513-8C88-4613-BDE9-20E87D6002F7" style="stroke-width:1;fill:rgb(177,194,214);font-family:arial;font-weight:bold" font-size="12" onclick="ORYX.Plugins.CanvasTitle.openTextualAnalysis()" onmouseover="ORYX.Plugins.CanvasTitle.addToolTip('_C0B28513-8C88-4613-BDE9-20E87D6002F7')" transform="translate(10, 20)">SLA_policy_sample v.1.0 (slapolicy-example.SLA_policy_sample)</text></g></g></svg>